<svg xmlns="http://www.w3.org/2000/svg" viewBox="0 0 350 51">
  <path d="M64.864 40.845c.143.009.208.079.208.226a.228.228 0 01-.013.091l-2.133 7.446a5.887 5.887 0 01-.33.892 1.716 1.716 0 01-.446.588 1.7 1.7 0 01-.652.33 3.639 3.639 0 01-.937.1c-.192 0-.384-.011-.575-.032a3.815 3.815 0 01-.511-.084.816.816 0 01-.194-.065.143.143 0 01-.078-.142v-.479c0-.138.082-.207.246-.207h.038c.147.017.338.034.575.052.237.018.428.025.575.025.16.002.321-.013.479-.045a.818.818 0 00.355-.168c.108-.094.196-.209.259-.337a2.4 2.4 0 00.187-.549l.13-.53h-.181c-.093 0-.186-.008-.278-.026a.623.623 0 01-.259-.116.849.849 0 01-.226-.272 2.327 2.327 0 01-.194-.478l-1.72-5.908a.231.231 0 01-.012-.091c0-.146.077-.22.233-.22h.711c.053 0 .103.024.136.065a.4.4 0 01.084.142l1.525 5.622a.45.45 0 00.116.24.227.227 0 00.129.045h.207l1.577-5.921a.325.325 0 01.09-.136.226.226 0 01.155-.058h.724zm-54.822-.089a3.26 3.26 0 011.255.226c.345.141.653.36.9.64.25.291.435.632.543 1 .125.42.186.855.181 1.293v.982a4.36 4.36 0 01-.181 1.293 2.718 2.718 0 01-.543 1c-.247.28-.555.499-.9.64-.4.158-.826.234-1.255.226a3.19 3.19 0 01-1.247-.226 2.424 2.424 0 01-.9-.64 2.718 2.718 0 01-.543-1 4.36 4.36 0 01-.181-1.293v-.982a4.353 4.353 0 01.181-1.293c.108-.368.294-.709.543-1 .247-.28.555-.498.9-.64a3.2 3.2 0 011.247-.226zm16.782-.001a3.3 3.3 0 011.238.213c.338.131.64.339.884.607.244.277.427.604.535.957.125.404.186.825.181 1.248l.001.701c0 .19-.082.285-.246.285h-4.318v.181c-.057.58.104 1.161.453 1.629.36.341.849.515 1.344.478a19.927 19.927 0 002.301-.139h.065c.05 0 .1.013.142.039.046.032.07.087.064.142v.439a.334.334 0 01-.052.2.306.306 0 01-.207.1c-.37.067-.738.12-1.105.162-.402.04-.805.059-1.209.057-.367 0-.732-.05-1.085-.148a2.381 2.381 0 01-.938-.5 2.567 2.567 0 01-.659-.95 3.875 3.875 0 01-.252-1.5v-1.175a3.177 3.177 0 01.735-2.212 2.719 2.719 0 012.128-.814zm11.14 0a3.3 3.3 0 011.238.213c.338.131.64.339.884.607.244.277.427.604.535.957.125.404.186.825.181 1.248l.001.701c0 .19-.082.285-.246.285h-4.318v.181c-.057.58.104 1.161.453 1.629.36.341.849.515 1.344.478a19.96 19.96 0 002.301-.139h.065c.05 0 .1.013.142.039.046.032.07.087.064.142v.439a.334.334 0 01-.052.2.306.306 0 01-.207.1c-.371.067-.74.12-1.105.162-.402.04-.805.059-1.209.057-.367 0-.732-.05-1.086-.148a2.384 2.384 0 01-.937-.5 2.567 2.567 0 01-.659-.95 3.875 3.875 0 01-.252-1.5v-1.175a3.177 3.177 0 01.735-2.212 2.718 2.718 0 012.128-.814zm-23.176.096a.188.188 0 01.148.065c.037.04.062.089.071.142l1.073 5.907a.283.283 0 00.051.136.086.086 0 00.052.019c.043 0 .078-.051.1-.155l1.268-4.976a.531.531 0 01.187-.3.569.569 0 01.33-.085h.724a.571.571 0 01.33.085c.094.076.16.182.187.3l1.267 4.976c.026.1.06.155.1.155a.086.086 0 00.051-.019.283.283 0 00.051-.136l1.073-5.907a.28.28 0 01.071-.142.191.191 0 01.149-.065h.7c.067 0 .13.028.174.078a.258.258 0 01.071.181l.003.052-1.254 6a3.638 3.638 0 01-.129.485.584.584 0 01-.181.265.634.634 0 01-.3.116 3.634 3.634 0 01-.471.025 2.348 2.348 0 01-.428-.032.611.611 0 01-.284-.129.719.719 0 01-.194-.278 3.459 3.459 0 01-.155-.492l-1.124-4.4a1.984 1.984 0 00-.032-.077c-.004-.009-.015-.013-.032-.013s-.028 0-.032.013-.015.034-.033.077l-1.124 4.4a3.5 3.5 0 01-.155.466.786.786 0 01-.194.285.63.63 0 01-.29.142c-.138.028-.28.042-.421.039a3.6 3.6 0 01-.478-.025.629.629 0 01-.3-.116.583.583 0 01-.181-.272 3.846 3.846 0 01-.129-.479l-1.255-6v-.052c0-.067.025-.132.071-.181a.227.227 0 01.174-.078h.7zm32.586-2.611a.215.215 0 01.168.071c.043.048.066.11.065.174l.001 9.049a.374.374 0 01-.045.2.318.318 0 01-.226.1c-.397.076-.797.132-1.2.168-.393.035-.787.052-1.183.051a3.181 3.181 0 01-1.254-.226c-.34-.14-.64-.36-.879-.64a2.658 2.658 0 01-.517-1.008 4.825 4.825 0 01-.168-1.319v-.931a3.52 3.52 0 01.7-2.346 2.627 2.627 0 012.12-.821 9.605 9.605 0 011.513.132v-2.409c0-.065.025-.128.072-.174a.235.235 0 01.174-.071h.659zm38.899.115a.243.243 0 01.177.072.238.238 0 01.072.174v5.878a5.4 5.4 0 00.1 1.107c.055.293.177.57.355.809.17.218.395.388.651.492a3.068 3.068 0 002 0c.259-.103.485-.273.657-.492.177-.237.298-.51.354-.8.072-.367.106-.74.1-1.114v-5.88a.235.235 0 01.072-.174.242.242 0 01.176-.072h.706a.245.245 0 01.249.245v5.87a3.681 3.681 0 01-.866 2.715 3.884 3.884 0 01-4.89 0 3.7 3.7 0 01-.867-2.715V38.6a.245.245 0 01.248-.245h.706zm-4.781.142c.421.151.8.4 1.108.724.33.362.578.792.725 1.26.185.596.272 1.219.259 1.843v1.668a5.815 5.815 0 01-.259 1.842 3.358 3.358 0 01-.725 1.261 2.849 2.849 0 01-1.108.724c-.911.31-1.899.31-2.81 0-.42-.15-.8-.399-1.107-.724a3.42 3.42 0 01-.733-1.261 5.7 5.7 0 01-.265-1.842v-1.668a5.7 5.7 0 01.265-1.843c.151-.468.401-.898.733-1.26a2.836 2.836 0 011.107-.724 4.362 4.362 0 012.81 0zm-28.038-.257a.243.243 0 01.246.246v2.405a9.123 9.123 0 011.513-.132c.792-.06 1.57.242 2.114.821a3.5 3.5 0 01.7 2.346v.93c.005.445-.051.89-.168 1.319-.098.37-.274.713-.517 1.008-.238.28-.54.5-.879.64-.398.16-.825.236-1.254.226-.388 0-.78-.017-1.176-.051a11.951 11.951 0 01-1.2-.168.338.338 0 01-.226-.09.374.374 0 01-.045-.207v-9.048a.249.249 0 01.065-.174.216.216 0 01.168-.071h.659zm16.781.114c.05.003.098.024.135.059a.307.307 0 01.1.122l1.784 4.188c.04.101.097.195.168.278a.173.173 0 00.259 0 1 1 0 00.168-.278l1.8-4.188a.355.355 0 01.084-.122.184.184 0 01.135-.059h.789c.136.001.21.066.21.182a.323.323 0 01-.039.142l-2 4.5c-.09.208-.208.404-.349.581a.991.991 0 01-.349.272v3.672c0 .066-.022.13-.065.181a.211.211 0 01-.168.077h-.711a.21.21 0 01-.168-.077.275.275 0 01-.064-.181V44.03a.83.83 0 01-.35-.265 2.767 2.767 0 01-.349-.588l-1.991-4.5a.331.331 0 01-.038-.142c0-.12.073-.181.22-.181h.789zm-67.677-.089c.486-.004.972.046 1.447.149a3.3 3.3 0 011.144.478c.323.219.583.517.757.866.192.41.285.86.272 1.312l-.004.168a3.07 3.07 0 01-.272 1.364 2.339 2.339 0 01-.757.892 3.148 3.148 0 01-1.144.491c-.475.103-.96.153-1.447.149a15.516 15.516 0 01-1.292-.065v3.633c0 .066-.022.13-.065.181a.21.21 0 01-.168.077h-.7a.21.21 0 01-.168-.077.275.275 0 01-.064-.181v-9.01a.3.3 0 01.31-.324c.276-.034.608-.06 1-.077s.772-.026 1.151-.026zm31.587 2.493c.181 0 .272.079.272.236v.537c.004.15-.087.224-.268.224-.295-.001-.59.04-.873.122-.32.1-.627.241-.912.419v5.406a.245.245 0 01-.077.181.25.25 0 01-.181.077h-.634a.23.23 0 01-.177-.079.259.259 0 01-.07-.181v-6.593a.257.257 0 01.07-.181.227.227 0 01.174-.078h.608c.067 0 .13.028.174.079.046.05.072.116.071.184v.276c.287-.206.603-.37.937-.485.286-.094.585-.143.886-.144zm10.812.998a1.986 1.986 0 00-.8.142c-.208.09-.388.235-.518.42-.138.207-.233.44-.278.685a4.612 4.612 0 00-.084.924v.931c-.033.566.092 1.13.362 1.629.307.41.81.628 1.319.569.224 0 .476-.008.757-.026s.532-.034.756-.051l-.001-5.133a4.635 4.635 0 00-.763-.077 25.832 25.832 0 00-.75-.013zm10.252 0c-.1 0-.22 0-.35.007l-.4.013c-.138 0-.273.012-.407.025a5.533 5.533 0 00-.356.045v5.133c.224.017.477.034.757.051.28.017.532.026.757.026a1.439 1.439 0 001.318-.569c.27-.498.397-1.063.363-1.629l-.001-.933a2.942 2.942 0 00-.369-1.6 1.442 1.442 0 00-1.312-.569zm-45.162 0a1.806 1.806 0 00-1.327.575 2.669 2.669 0 00-.414 1.584v.982c-.03.555.113 1.106.407 1.577a1.5 1.5 0 001.325.581 1.532 1.532 0 001.326-.575c.304-.47.452-1.024.42-1.583v-.982a2.675 2.675 0 00-.414-1.577c-.34-.37-.82-.581-1.323-.582zm69.089-2.27a1.751 1.751 0 00-.729.524c-.218.274-.376.59-.464.93-.116.452-.17.917-.161 1.384v1.668c-.01.466.045.931.161 1.383.087.338.243.655.457.931.192.237.443.417.728.524.308.11.634.165.961.161.325.005.648-.05.954-.161.283-.108.532-.289.722-.524.215-.276.37-.593.457-.931.116-.452.17-.917.161-1.383l.001-1.668a5.152 5.152 0 00-.161-1.384 2.544 2.544 0 00-.457-.93 1.7 1.7 0 00-.722-.524 2.9 2.9 0 00-1.908 0zm-52.302 2.265a1.65 1.65 0 00-1.287.491 2.24 2.24 0 00-.446 1.539v.116h3.426v-.116a2.32 2.32 0 00-.42-1.564 1.629 1.629 0 00-1.273-.466zm11.137 0c-.48-.032-.95.148-1.286.491-.333.44-.492.989-.446 1.539v.116h3.425l.001-.116a2.32 2.32 0 00-.42-1.564 1.63 1.63 0 00-1.274-.466zm-35.422-2.49c-.2 0-.425 0-.679.012-.254.012-.46.021-.614.039v3.775c.077 0 .172 0 .284.013.112.013.229.015.35.019l.355.013c.117 0 .218.006.3.006a3.038 3.038 0 001.887-.451c.4-.373.606-.91.556-1.456l.009-.167a1.574 1.574 0 00-.6-1.391 3.287 3.287 0 00-1.848-.412zM130.864.83c1.668.531 3.19 1.44 4.45 2.656a12.592 12.592 0 012.983 4.719 19.991 19.991 0 011.089 7.019l.001 5.644a19.991 19.991 0 01-1.089 7.019 12.592 12.592 0 01-2.984 4.719 11.375 11.375 0 01-4.45 2.656 18.588 18.588 0 01-10.985 0 11.386 11.386 0 01-4.451-2.656 12.6 12.6 0 01-2.983-4.719 19.992 19.992 0 01-1.089-7.019v-5.644a19.992 19.992 0 011.089-7.019 12.6 12.6 0 012.983-4.719A11.4 11.4 0 01119.879.83a18.588 18.588 0 0110.985 0zM7.161.426c.519.013.936.43.949.949v24.52c-.1.902.145 1.81.688 2.537a3.254 3.254 0 002.348.688h8.158c.519.013.936.43.949.949v4.406c-.001.54-.318.874-.95 1-.5.114-1.007.193-1.518.237-.633.063-1.305.126-2.016.19a50.001 50.001 0 01-4.197.19 24.809 24.809 0 01-4.387-.38 9.378 9.378 0 01-3.7-1.47 7.56 7.56 0 01-2.537-3.106 12.372 12.372 0 01-.949-5.241V1.375A.973.973 0 01.948.426h6.213zm179.841 0c.519.013.936.43.949.949v24.52c-.1.902.145 1.81.688 2.537a3.255 3.255 0 002.348.688h8.158c.519.013.936.43.949.949v4.406c-.001.54-.318.874-.95 1-.5.114-1.007.193-1.518.237-.633.063-1.305.126-2.016.19a50.001 50.001 0 01-4.197.19 24.809 24.809 0 01-4.387-.38 9.378 9.378 0 01-3.7-1.47 7.56 7.56 0 01-2.537-3.106 12.372 12.372 0 01-.949-5.241V1.375a.973.973 0 01.949-.949h6.213zm149.015 0c.519.013.936.43.949.949v24.52c-.1.902.145 1.81.688 2.537a3.254 3.254 0 002.348.688h8.157c.519.013.936.43.949.949v4.406c0 .54-.317.874-.949 1a11.1 11.1 0 01-1.518.237c-.633.063-1.305.126-2.016.19a50.001 50.001 0 01-4.197.19 24.809 24.809 0 01-4.387-.38 9.374 9.374 0 01-3.7-1.47 7.561 7.561 0 01-2.537-3.106 12.372 12.372 0 01-.949-5.241V1.375a.973.973 0 01.949-.949h6.213zM265.261 0c1.267 0 2.381.024 3.344.071.963.047 1.808.103 2.537.166.727.067 1.352.13 1.873.19.521.06.988.123 1.4.19.633.095.95.411.949.949v4.41a.971.971 0 01-.949.949h-9.628a3.253 3.253 0 00-2.347.688 3.583 3.583 0 00-.688 2.537v4.316h12.284c.518.013.935.43.947.949v4.506a.971.971 0 01-.947.949h-12.289v5.027c-.1.902.145 1.81.688 2.537a3.253 3.253 0 002.347.688h9.628c.52.012.937.43.949.949v4.411c-.002.567-.318.899-.949.994-.821.126-1.921.26-3.3.4-1.379.14-3.345.212-5.9.213a24.55 24.55 0 01-4.372-.379 9.446 9.446 0 01-3.695-1.47 7.577 7.577 0 01-2.552-3.106 12.308 12.308 0 01-.953-5.241V10.149c-.07-1.788.255-3.57.953-5.217a7.607 7.607 0 012.552-3.083 9.472 9.472 0 013.718-1.47 24.88 24.88 0 014.4-.38zM81.817 0c1.267 0 2.381.024 3.344.071.963.047 1.808.103 2.537.166.727.067 1.351.13 1.873.19s.989.123 1.4.19c.632.095.948.411.949.949v4.41a.973.973 0 01-.949.949h-9.628a3.255 3.255 0 00-2.348.688 3.583 3.583 0 00-.688 2.537v4.316h12.284c.519.013.936.43.949.949v4.506a.973.973 0 01-.949.949H78.302v5.027c-.1.902.145 1.81.688 2.537a3.255 3.255 0 002.348.688h9.628c.519.013.936.43.949.949v4.411c0 .567-.317.899-.95.994a69.28 69.28 0 01-3.3.4c-1.378.14-3.345.212-5.9.213a24.565 24.565 0 01-4.372-.379 9.452 9.452 0 01-3.694-1.47 7.571 7.571 0 01-2.552-3.106 12.319 12.319 0 01-.954-5.241V10.149c-.07-1.788.256-3.57.954-5.217a7.6 7.6 0 012.552-3.083 9.478 9.478 0 013.718-1.47 24.895 24.895 0 014.4-.38zM44.77.428c.23-.01.453.076.617.237.165.172.28.385.332.617l5.928 27.366c.095.474.316.711.664.711.348 0 .57-.237.664-.711l5.928-27.366c.05-.228.156-.44.308-.617a.754.754 0 01.593-.237h6.64c.538 0 .807.252.808.758a.215.215 0 01-.024.095.33.33 0 00-.024.142l-7.067 29.4a7.4 7.4 0 01-1.233 2.751 5.559 5.559 0 01-1.873 1.589 7.534 7.534 0 01-2.277.735c-.808.126-1.625.19-2.443.19-.826 0-1.65-.064-2.466-.19a7.534 7.534 0 01-2.3-.735 5.559 5.559 0 01-1.873-1.588 7.385 7.385 0 01-1.233-2.751l-7.067-29.4a.187.187 0 00-.024-.119.186.186 0 01-.024-.119.7.7 0 01.237-.545.884.884 0 01.617-.213h6.592zm167.57.227a.8.8 0 01.228.673v33.389a.956.956 0 01-.263.664.837.837 0 01-.64.285h-6.355a.764.764 0 01-.617-.285 1 1 0 01-.237-.664V1.328c0-.6.285-.9.854-.9h6.358a.8.8 0 01.673.227zM32.5.655a.8.8 0 01.227.673v33.389a.956.956 0 01-.263.664.837.837 0 01-.64.285h-6.355a.764.764 0 01-.617-.285 1 1 0 01-.237-.664V1.328c0-.6.285-.9.854-.9h6.358a.8.8 0 01.673.227zM321.263.427a.955.955 0 01.664.261.835.835 0 01.285.64v32.535a1.7 1.7 0 01-.544 1.281c-.346.34-.814.529-1.3.522h-4.648a3.15 3.15 0 01-1.328-.261 2.914 2.914 0 01-1.139-1.209l-10.814-18.687c-.158-.252-.3-.379-.427-.379-.159 0-.238.127-.238.379v19.208a.973.973 0 01-.948.949h-5.6a.974.974 0 01-.95-.949V2.229a1.783 1.783 0 011.801-1.8h4.79c.41-.02.813.106 1.138.356.348.318.637.696.853 1.115l11.24 19.54c.158.253.285.38.38.379.157 0 .236-.142.236-.427V1.328a.835.835 0 01.285-.64.953.953 0 01.664-.261h5.6zm-149.008 0a.955.955 0 01.664.261.836.836 0 01.285.64v32.535c.008.486-.192.952-.549 1.281-.346.34-.814.528-1.3.522h-4.65a3.15 3.15 0 01-1.328-.261 2.918 2.918 0 01-1.138-1.209l-10.813-18.687c-.158-.252-.3-.379-.427-.379-.158 0-.237.127-.237.379v19.208a.973.973 0 01-.949.949h-5.6a.973.973 0 01-.95-.949V2.229a1.782 1.782 0 011.801-1.8h4.79c.41-.02.813.106 1.138.356a4 4 0 01.854 1.115l11.24 19.54c.158.253.285.379.379.379.158 0 .237-.142.237-.427V1.328a.835.835 0 01.285-.64.953.953 0 01.664-.261h5.604zM287.264 27.84a.951.951 0 01.663.261.836.836 0 01.285.64v5.976a.91.91 0 01-.285.664.908.908 0 01-.663.285h-5.549a.991.991 0 01-.688-.285.877.877 0 01-.308-.664v-5.976a.81.81 0 01.308-.64c.19-.168.435-.26.688-.261h5.549zM246.188.427a.955.955 0 01.664.261.835.835 0 01.285.64v32.535a1.7 1.7 0 01-.543 1.281 1.82 1.82 0 01-1.3.522h-4.648a3.15 3.15 0 01-1.328-.261 2.918 2.918 0 01-1.138-1.209l-10.817-18.687c-.158-.252-.3-.379-.427-.379-.158 0-.237.127-.237.379v19.208a.973.973 0 01-.949.949h-5.6a.973.973 0 01-.95-.949V2.229a1.782 1.782 0 011.801-1.8h4.79c.41-.02.813.106 1.138.356a4 4 0 01.854 1.115l11.24 19.54c.159.253.285.38.379.379.159 0 .238-.142.237-.427V1.328a.835.835 0 01.285-.64.953.953 0 01.664-.261h5.6zM120.985 8.97c-.949 1.27-1.423 3.351-1.423 6.241v5.668c0 2.89.474 4.97 1.423 6.24a5.144 5.144 0 004.411 1.906 5.211 5.211 0 004.434-1.906c.964-1.267 1.446-3.347 1.447-6.24v-5.668c0-2.89-.482-4.97-1.447-6.241a5.212 5.212 0 00-4.434-1.9 5.146 5.146 0 00-4.411 1.9zm-14.697 9.478a.954.954 0 01.664.261.835.835 0 01.285.64v3.794a.765.765 0 01-.285.617 1 1 0 01-.664.237h-9.2a1 1 0 01-.664-.237.765.765 0 01-.285-.617V19.35a.835.835 0 01.285-.64.951.951 0 01.664-.261h9.2z"/>
</svg>
